# xmcd CD database file
#
# Track frame offsets:
#	150
#	21612
#	45107
#	66630
#
# Disc length: 1200 seconds
#
# Revision: 1
# Processed by: cddbd v1.5PL3 Copyright (c) Steve Scherf et al.
# Submitted via: CDex 1.51
#
DISCID=3304ae04
DTITLE=TRF - Frame
DYEAR=1998
DGENRE=JPop
TTITLE0=Frame
TTITLE1=frisky a GO-GO!
TTITLE2=Frame (instrumental)
TTITLE3=frisky a GO-GO! (instrumental)
EXTD=YEAR: 1998
EXTT0=
EXTT1=
EXTT2=
EXTT3=
PLAYORDER=
